<mxfile host="app.diagrams.net" agent="Mozilla/5.0 (Windows NT 10.0; Win64; x64; rv:137.0) Gecko/20100101 Firefox/137.0" version="26.2.9">
  <diagram name="Page-1" id="2YBvvXClWsGukQMizWep">
    <mxGraphModel dx="3362" dy="2035" grid="1" gridSize="10" guides="1" tooltips="1" connect="1" arrows="1" fold="1" page="1" pageScale="1" pageWidth="850" pageHeight="1100" math="0" shadow="0">
      <root>
        <mxCell id="0" />
        <mxCell id="1" parent="0" />
        <mxCell id="aM9ryv3xv72pqoxQDRHE-1" value="Unauthorized Customer" style="shape=umlLifeline;perimeter=lifelinePerimeter;whiteSpace=wrap;html=1;container=0;dropTarget=0;collapsible=0;recursiveResize=0;outlineConnect=0;portConstraint=eastwest;newEdgeStyle={&quot;edgeStyle&quot;:&quot;elbowEdgeStyle&quot;,&quot;elbow&quot;:&quot;vertical&quot;,&quot;curved&quot;:0,&quot;rounded&quot;:0};" parent="1" vertex="1">
          <mxGeometry x="40" y="40" width="100" height="500" as="geometry" />
        </mxCell>
        <mxCell id="aM9ryv3xv72pqoxQDRHE-2" value="" style="html=1;points=[];perimeter=orthogonalPerimeter;outlineConnect=0;targetShapes=umlLifeline;portConstraint=eastwest;newEdgeStyle={&quot;edgeStyle&quot;:&quot;elbowEdgeStyle&quot;,&quot;elbow&quot;:&quot;vertical&quot;,&quot;curved&quot;:0,&quot;rounded&quot;:0};" parent="aM9ryv3xv72pqoxQDRHE-1" vertex="1">
          <mxGeometry x="45" y="70" width="10" height="430" as="geometry" />
        </mxCell>
        <mxCell id="aM9ryv3xv72pqoxQDRHE-5" value="Website" style="shape=umlLifeline;perimeter=lifelinePerimeter;whiteSpace=wrap;html=1;container=0;dropTarget=0;collapsible=0;recursiveResize=0;outlineConnect=0;portConstraint=eastwest;newEdgeStyle={&quot;edgeStyle&quot;:&quot;elbowEdgeStyle&quot;,&quot;elbow&quot;:&quot;vertical&quot;,&quot;curved&quot;:0,&quot;rounded&quot;:0};" parent="1" vertex="1">
          <mxGeometry x="220" y="40" width="100" height="500" as="geometry" />
        </mxCell>
        <mxCell id="aM9ryv3xv72pqoxQDRHE-6" value="" style="html=1;points=[];perimeter=orthogonalPerimeter;outlineConnect=0;targetShapes=umlLifeline;portConstraint=eastwest;newEdgeStyle={&quot;edgeStyle&quot;:&quot;elbowEdgeStyle&quot;,&quot;elbow&quot;:&quot;vertical&quot;,&quot;curved&quot;:0,&quot;rounded&quot;:0};" parent="aM9ryv3xv72pqoxQDRHE-5" vertex="1">
          <mxGeometry x="45" y="80" width="10" height="420" as="geometry" />
        </mxCell>
        <mxCell id="aM9ryv3xv72pqoxQDRHE-7" value="Wants to Register" style="html=1;verticalAlign=bottom;endArrow=block;edgeStyle=elbowEdgeStyle;elbow=vertical;curved=0;rounded=0;" parent="1" source="aM9ryv3xv72pqoxQDRHE-2" target="aM9ryv3xv72pqoxQDRHE-6" edge="1">
          <mxGeometry relative="1" as="geometry">
            <mxPoint x="195" y="130" as="sourcePoint" />
            <Array as="points">
              <mxPoint x="180" y="120" />
            </Array>
          </mxGeometry>
        </mxCell>
        <mxCell id="aM9ryv3xv72pqoxQDRHE-8" value="Registration Sucessful" style="html=1;verticalAlign=bottom;endArrow=open;dashed=1;endSize=8;edgeStyle=elbowEdgeStyle;elbow=vertical;curved=0;rounded=0;" parent="1" edge="1">
          <mxGeometry relative="1" as="geometry">
            <mxPoint x="100" y="280" as="targetPoint" />
            <Array as="points">
              <mxPoint x="190" y="280" />
            </Array>
            <mxPoint x="250" y="280" as="sourcePoint" />
            <mxPoint as="offset" />
          </mxGeometry>
        </mxCell>
        <mxCell id="aM9ryv3xv72pqoxQDRHE-9" value="Give Feedback" style="html=1;verticalAlign=bottom;endArrow=block;edgeStyle=elbowEdgeStyle;elbow=vertical;curved=0;rounded=0;" parent="1" edge="1">
          <mxGeometry x="-0.0909" y="1" relative="1" as="geometry">
            <mxPoint x="445" y="210" as="sourcePoint" />
            <Array as="points">
              <mxPoint x="370" y="210" />
            </Array>
            <mxPoint x="280" y="210" as="targetPoint" />
            <mxPoint as="offset" />
          </mxGeometry>
        </mxCell>
        <mxCell id="aM9ryv3xv72pqoxQDRHE-10" value="Fix Mistake If Any" style="html=1;verticalAlign=bottom;endArrow=open;dashed=1;endSize=8;edgeStyle=elbowEdgeStyle;elbow=vertical;curved=0;rounded=0;" parent="1" edge="1">
          <mxGeometry relative="1" as="geometry">
            <mxPoint x="260" y="230" as="targetPoint" />
            <Array as="points">
              <mxPoint x="180" y="230" />
            </Array>
            <mxPoint x="100" y="230" as="sourcePoint" />
          </mxGeometry>
        </mxCell>
        <mxCell id="BdRyoHhxma-cPwSNTm6--17" value="Open Registration UI" style="html=1;verticalAlign=bottom;endArrow=block;edgeStyle=elbowEdgeStyle;elbow=vertical;curved=0;rounded=0;" edge="1" parent="1">
          <mxGeometry relative="1" as="geometry">
            <mxPoint x="280" y="130" as="sourcePoint" />
            <Array as="points">
              <mxPoint x="365" y="130" />
            </Array>
            <mxPoint x="450" y="130" as="targetPoint" />
          </mxGeometry>
        </mxCell>
        <mxCell id="BdRyoHhxma-cPwSNTm6--18" value="System : Navigation" style="shape=umlLifeline;perimeter=lifelinePerimeter;whiteSpace=wrap;html=1;container=0;dropTarget=0;collapsible=0;recursiveResize=0;outlineConnect=0;portConstraint=eastwest;newEdgeStyle={&quot;edgeStyle&quot;:&quot;elbowEdgeStyle&quot;,&quot;elbow&quot;:&quot;vertical&quot;,&quot;curved&quot;:0,&quot;rounded&quot;:0};" vertex="1" parent="1">
          <mxGeometry x="410" y="40" width="100" height="500" as="geometry" />
        </mxCell>
        <mxCell id="BdRyoHhxma-cPwSNTm6--19" value="" style="html=1;points=[];perimeter=orthogonalPerimeter;outlineConnect=0;targetShapes=umlLifeline;portConstraint=eastwest;newEdgeStyle={&quot;edgeStyle&quot;:&quot;elbowEdgeStyle&quot;,&quot;elbow&quot;:&quot;vertical&quot;,&quot;curved&quot;:0,&quot;rounded&quot;:0};" vertex="1" parent="BdRyoHhxma-cPwSNTm6--18">
          <mxGeometry x="45" y="80" width="10" height="420" as="geometry" />
        </mxCell>
        <mxCell id="BdRyoHhxma-cPwSNTm6--20" value="Start Registration Protocol " style="html=1;verticalAlign=bottom;endArrow=block;edgeStyle=elbowEdgeStyle;elbow=vertical;curved=0;rounded=0;" edge="1" parent="1">
          <mxGeometry relative="1" as="geometry">
            <mxPoint x="480" y="140" as="sourcePoint" />
            <Array as="points">
              <mxPoint x="565" y="140" />
            </Array>
            <mxPoint x="650" y="140" as="targetPoint" />
            <mxPoint as="offset" />
          </mxGeometry>
        </mxCell>
        <mxCell id="BdRyoHhxma-cPwSNTm6--21" value="Check Mistake" style="html=1;verticalAlign=bottom;endArrow=block;edgeStyle=elbowEdgeStyle;elbow=vertical;curved=0;rounded=0;" edge="1" parent="1">
          <mxGeometry x="-0.0909" y="1" relative="1" as="geometry">
            <mxPoint x="645" y="189.5" as="sourcePoint" />
            <Array as="points">
              <mxPoint x="570" y="189.5" />
            </Array>
            <mxPoint x="480" y="189.5" as="targetPoint" />
            <mxPoint as="offset" />
          </mxGeometry>
        </mxCell>
        <mxCell id="BdRyoHhxma-cPwSNTm6--26" value="Registration Form" style="shape=umlLifeline;perimeter=lifelinePerimeter;whiteSpace=wrap;html=1;container=0;dropTarget=0;collapsible=0;recursiveResize=0;outlineConnect=0;portConstraint=eastwest;newEdgeStyle={&quot;edgeStyle&quot;:&quot;elbowEdgeStyle&quot;,&quot;elbow&quot;:&quot;vertical&quot;,&quot;curved&quot;:0,&quot;rounded&quot;:0};" vertex="1" parent="1">
          <mxGeometry x="650" y="120" width="100" height="160" as="geometry" />
        </mxCell>
        <mxCell id="BdRyoHhxma-cPwSNTm6--27" value="" style="html=1;points=[];perimeter=orthogonalPerimeter;outlineConnect=0;targetShapes=umlLifeline;portConstraint=eastwest;newEdgeStyle={&quot;edgeStyle&quot;:&quot;elbowEdgeStyle&quot;,&quot;elbow&quot;:&quot;vertical&quot;,&quot;curved&quot;:0,&quot;rounded&quot;:0};" vertex="1" parent="BdRyoHhxma-cPwSNTm6--26">
          <mxGeometry x="45" y="60" width="10" height="100" as="geometry" />
        </mxCell>
        <mxCell id="BdRyoHhxma-cPwSNTm6--30" value="" style="html=1;verticalAlign=bottom;endArrow=open;dashed=1;endSize=8;edgeStyle=elbowEdgeStyle;elbow=vertical;curved=0;rounded=0;" edge="1" parent="1">
          <mxGeometry relative="1" as="geometry">
            <mxPoint x="280" y="280" as="targetPoint" />
            <Array as="points">
              <mxPoint x="375" y="280" />
            </Array>
            <mxPoint x="440" y="280" as="sourcePoint" />
            <mxPoint as="offset" />
          </mxGeometry>
        </mxCell>
        <mxCell id="BdRyoHhxma-cPwSNTm6--31" value="" style="html=1;verticalAlign=bottom;endArrow=open;dashed=1;endSize=8;edgeStyle=elbowEdgeStyle;elbow=vertical;curved=0;rounded=0;" edge="1" parent="1">
          <mxGeometry relative="1" as="geometry">
            <mxPoint x="480" y="280" as="targetPoint" />
            <Array as="points">
              <mxPoint x="565" y="280" />
            </Array>
            <mxPoint x="680" y="280" as="sourcePoint" />
            <mxPoint as="offset" />
          </mxGeometry>
        </mxCell>
        <mxCell id="BdRyoHhxma-cPwSNTm6--32" value="" style="html=1;verticalAlign=bottom;endArrow=open;dashed=1;endSize=8;edgeStyle=elbowEdgeStyle;elbow=vertical;curved=0;rounded=0;" edge="1" parent="1">
          <mxGeometry relative="1" as="geometry">
            <mxPoint x="445" y="230" as="targetPoint" />
            <Array as="points">
              <mxPoint x="360" y="230" />
            </Array>
            <mxPoint x="280" y="230" as="sourcePoint" />
          </mxGeometry>
        </mxCell>
        <mxCell id="BdRyoHhxma-cPwSNTm6--33" value="" style="html=1;verticalAlign=bottom;endArrow=open;dashed=1;endSize=8;edgeStyle=elbowEdgeStyle;elbow=vertical;curved=0;rounded=0;" edge="1" parent="1">
          <mxGeometry relative="1" as="geometry">
            <mxPoint x="680" y="230" as="targetPoint" />
            <Array as="points">
              <mxPoint x="550" y="230" />
            </Array>
            <mxPoint x="480" y="230" as="sourcePoint" />
          </mxGeometry>
        </mxCell>
        <mxCell id="BdRyoHhxma-cPwSNTm6--55" value="Wants to Login" style="html=1;verticalAlign=bottom;endArrow=block;edgeStyle=elbowEdgeStyle;elbow=vertical;curved=0;rounded=0;" edge="1" parent="1">
          <mxGeometry relative="1" as="geometry">
            <mxPoint x="100" y="350" as="sourcePoint" />
            <Array as="points">
              <mxPoint x="175" y="350" />
            </Array>
            <mxPoint x="260" y="350" as="targetPoint" />
          </mxGeometry>
        </mxCell>
        <mxCell id="BdRyoHhxma-cPwSNTm6--56" value="Login Sucessful" style="html=1;verticalAlign=bottom;endArrow=open;dashed=1;endSize=8;edgeStyle=elbowEdgeStyle;elbow=vertical;curved=0;rounded=0;" edge="1" parent="1">
          <mxGeometry x="-0.1176" relative="1" as="geometry">
            <mxPoint x="100" y="510" as="targetPoint" />
            <Array as="points">
              <mxPoint x="195" y="510" />
            </Array>
            <mxPoint x="260" y="510" as="sourcePoint" />
            <mxPoint as="offset" />
          </mxGeometry>
        </mxCell>
        <mxCell id="BdRyoHhxma-cPwSNTm6--57" value="Give Feedback" style="html=1;verticalAlign=bottom;endArrow=block;edgeStyle=elbowEdgeStyle;elbow=vertical;curved=0;rounded=0;" edge="1" parent="1">
          <mxGeometry x="-0.0909" y="1" relative="1" as="geometry">
            <mxPoint x="440" y="440" as="sourcePoint" />
            <Array as="points">
              <mxPoint x="365" y="440" />
            </Array>
            <mxPoint x="280" y="440" as="targetPoint" />
            <mxPoint as="offset" />
          </mxGeometry>
        </mxCell>
        <mxCell id="BdRyoHhxma-cPwSNTm6--58" value="Fix Mistake If Any" style="html=1;verticalAlign=bottom;endArrow=open;dashed=1;endSize=8;edgeStyle=elbowEdgeStyle;elbow=vertical;curved=0;rounded=0;" edge="1" parent="1">
          <mxGeometry relative="1" as="geometry">
            <mxPoint x="260" y="460" as="targetPoint" />
            <Array as="points">
              <mxPoint x="175" y="460" />
            </Array>
            <mxPoint x="100" y="460" as="sourcePoint" />
          </mxGeometry>
        </mxCell>
        <mxCell id="BdRyoHhxma-cPwSNTm6--59" value="Open Log In UI" style="html=1;verticalAlign=bottom;endArrow=block;edgeStyle=elbowEdgeStyle;elbow=vertical;curved=0;rounded=0;" edge="1" parent="1">
          <mxGeometry relative="1" as="geometry">
            <mxPoint x="275" y="360" as="sourcePoint" />
            <Array as="points">
              <mxPoint x="360" y="360" />
            </Array>
            <mxPoint x="445" y="360" as="targetPoint" />
          </mxGeometry>
        </mxCell>
        <mxCell id="BdRyoHhxma-cPwSNTm6--60" value="Start Login Protocol" style="html=1;verticalAlign=bottom;endArrow=block;edgeStyle=elbowEdgeStyle;elbow=vertical;curved=0;rounded=0;" edge="1" parent="1">
          <mxGeometry relative="1" as="geometry">
            <mxPoint x="480" y="370" as="sourcePoint" />
            <Array as="points">
              <mxPoint x="565" y="370" />
            </Array>
            <mxPoint x="650" y="370" as="targetPoint" />
          </mxGeometry>
        </mxCell>
        <mxCell id="BdRyoHhxma-cPwSNTm6--61" value="Check ID &amp;amp; password" style="html=1;verticalAlign=bottom;endArrow=block;edgeStyle=elbowEdgeStyle;elbow=vertical;curved=0;rounded=0;" edge="1" parent="1">
          <mxGeometry x="-0.0909" relative="1" as="geometry">
            <mxPoint x="645" y="419.66" as="sourcePoint" />
            <Array as="points">
              <mxPoint x="570" y="419.66" />
            </Array>
            <mxPoint x="480" y="419.66" as="targetPoint" />
            <mxPoint as="offset" />
          </mxGeometry>
        </mxCell>
        <mxCell id="BdRyoHhxma-cPwSNTm6--62" value="" style="html=1;verticalAlign=bottom;endArrow=open;dashed=1;endSize=8;edgeStyle=elbowEdgeStyle;elbow=vertical;curved=0;rounded=0;" edge="1" parent="1">
          <mxGeometry relative="1" as="geometry">
            <mxPoint x="280" y="510" as="targetPoint" />
            <Array as="points">
              <mxPoint x="370" y="510" />
            </Array>
            <mxPoint x="440" y="510" as="sourcePoint" />
            <mxPoint as="offset" />
          </mxGeometry>
        </mxCell>
        <mxCell id="BdRyoHhxma-cPwSNTm6--63" value="" style="html=1;verticalAlign=bottom;endArrow=open;dashed=1;endSize=8;edgeStyle=elbowEdgeStyle;elbow=vertical;curved=0;rounded=0;" edge="1" parent="1">
          <mxGeometry relative="1" as="geometry">
            <mxPoint x="480" y="510" as="targetPoint" />
            <Array as="points">
              <mxPoint x="560" y="510" />
            </Array>
            <mxPoint x="680" y="510" as="sourcePoint" />
            <mxPoint as="offset" />
          </mxGeometry>
        </mxCell>
        <mxCell id="BdRyoHhxma-cPwSNTm6--64" value="" style="html=1;verticalAlign=bottom;endArrow=open;dashed=1;endSize=8;edgeStyle=elbowEdgeStyle;elbow=vertical;curved=0;rounded=0;" edge="1" parent="1">
          <mxGeometry relative="1" as="geometry">
            <mxPoint x="440" y="460" as="targetPoint" />
            <Array as="points">
              <mxPoint x="355" y="460" />
            </Array>
            <mxPoint x="280" y="460" as="sourcePoint" />
          </mxGeometry>
        </mxCell>
        <mxCell id="BdRyoHhxma-cPwSNTm6--65" value="" style="html=1;verticalAlign=bottom;endArrow=open;dashed=1;endSize=8;edgeStyle=elbowEdgeStyle;elbow=vertical;curved=0;rounded=0;" edge="1" parent="1">
          <mxGeometry relative="1" as="geometry">
            <mxPoint x="680" y="460" as="targetPoint" />
            <Array as="points">
              <mxPoint x="545" y="460" />
            </Array>
            <mxPoint x="480" y="460" as="sourcePoint" />
          </mxGeometry>
        </mxCell>
        <mxCell id="BdRyoHhxma-cPwSNTm6--66" value="Login UI" style="shape=umlLifeline;perimeter=lifelinePerimeter;whiteSpace=wrap;html=1;container=0;dropTarget=0;collapsible=0;recursiveResize=0;outlineConnect=0;portConstraint=eastwest;newEdgeStyle={&quot;edgeStyle&quot;:&quot;elbowEdgeStyle&quot;,&quot;elbow&quot;:&quot;vertical&quot;,&quot;curved&quot;:0,&quot;rounded&quot;:0};" vertex="1" parent="1">
          <mxGeometry x="650" y="350" width="100" height="160" as="geometry" />
        </mxCell>
        <mxCell id="BdRyoHhxma-cPwSNTm6--67" value="" style="html=1;points=[];perimeter=orthogonalPerimeter;outlineConnect=0;targetShapes=umlLifeline;portConstraint=eastwest;newEdgeStyle={&quot;edgeStyle&quot;:&quot;elbowEdgeStyle&quot;,&quot;elbow&quot;:&quot;vertical&quot;,&quot;curved&quot;:0,&quot;rounded&quot;:0};" vertex="1" parent="BdRyoHhxma-cPwSNTm6--66">
          <mxGeometry x="45" y="60" width="10" height="100" as="geometry" />
        </mxCell>
        <mxCell id="BdRyoHhxma-cPwSNTm6--81" value="Admin" style="shape=umlLifeline;perimeter=lifelinePerimeter;whiteSpace=wrap;html=1;container=0;dropTarget=0;collapsible=0;recursiveResize=0;outlineConnect=0;portConstraint=eastwest;newEdgeStyle={&quot;edgeStyle&quot;:&quot;elbowEdgeStyle&quot;,&quot;elbow&quot;:&quot;vertical&quot;,&quot;curved&quot;:0,&quot;rounded&quot;:0};" vertex="1" parent="1">
          <mxGeometry x="40" y="590" width="100" height="500" as="geometry" />
        </mxCell>
        <mxCell id="BdRyoHhxma-cPwSNTm6--82" value="" style="html=1;points=[];perimeter=orthogonalPerimeter;outlineConnect=0;targetShapes=umlLifeline;portConstraint=eastwest;newEdgeStyle={&quot;edgeStyle&quot;:&quot;elbowEdgeStyle&quot;,&quot;elbow&quot;:&quot;vertical&quot;,&quot;curved&quot;:0,&quot;rounded&quot;:0};" vertex="1" parent="BdRyoHhxma-cPwSNTm6--81">
          <mxGeometry x="45" y="70" width="10" height="430" as="geometry" />
        </mxCell>
        <mxCell id="BdRyoHhxma-cPwSNTm6--83" value="Website" style="shape=umlLifeline;perimeter=lifelinePerimeter;whiteSpace=wrap;html=1;container=0;dropTarget=0;collapsible=0;recursiveResize=0;outlineConnect=0;portConstraint=eastwest;newEdgeStyle={&quot;edgeStyle&quot;:&quot;elbowEdgeStyle&quot;,&quot;elbow&quot;:&quot;vertical&quot;,&quot;curved&quot;:0,&quot;rounded&quot;:0};" vertex="1" parent="1">
          <mxGeometry x="220" y="590" width="100" height="500" as="geometry" />
        </mxCell>
        <mxCell id="BdRyoHhxma-cPwSNTm6--84" value="" style="html=1;points=[];perimeter=orthogonalPerimeter;outlineConnect=0;targetShapes=umlLifeline;portConstraint=eastwest;newEdgeStyle={&quot;edgeStyle&quot;:&quot;elbowEdgeStyle&quot;,&quot;elbow&quot;:&quot;vertical&quot;,&quot;curved&quot;:0,&quot;rounded&quot;:0};" vertex="1" parent="BdRyoHhxma-cPwSNTm6--83">
          <mxGeometry x="45" y="80" width="10" height="420" as="geometry" />
        </mxCell>
        <mxCell id="BdRyoHhxma-cPwSNTm6--85" value="Wants to Manage Event " style="html=1;verticalAlign=bottom;endArrow=block;edgeStyle=elbowEdgeStyle;elbow=vertical;curved=0;rounded=0;" edge="1" parent="1" source="BdRyoHhxma-cPwSNTm6--82" target="BdRyoHhxma-cPwSNTm6--84">
          <mxGeometry relative="1" as="geometry">
            <mxPoint x="195" y="680" as="sourcePoint" />
            <Array as="points">
              <mxPoint x="180" y="670" />
            </Array>
          </mxGeometry>
        </mxCell>
        <mxCell id="BdRyoHhxma-cPwSNTm6--86" value="Event Edit Successful" style="html=1;verticalAlign=bottom;endArrow=open;dashed=1;endSize=8;edgeStyle=elbowEdgeStyle;elbow=vertical;curved=0;rounded=0;" edge="1" parent="1">
          <mxGeometry relative="1" as="geometry">
            <mxPoint x="100" y="830" as="targetPoint" />
            <Array as="points">
              <mxPoint x="190" y="830" />
            </Array>
            <mxPoint x="250" y="830" as="sourcePoint" />
            <mxPoint as="offset" />
          </mxGeometry>
        </mxCell>
        <mxCell id="BdRyoHhxma-cPwSNTm6--87" value="Give Feedback" style="html=1;verticalAlign=bottom;endArrow=block;edgeStyle=elbowEdgeStyle;elbow=vertical;curved=0;rounded=0;" edge="1" parent="1">
          <mxGeometry x="-0.0909" y="1" relative="1" as="geometry">
            <mxPoint x="445" y="760" as="sourcePoint" />
            <Array as="points">
              <mxPoint x="370" y="760" />
            </Array>
            <mxPoint x="280" y="760" as="targetPoint" />
            <mxPoint as="offset" />
          </mxGeometry>
        </mxCell>
        <mxCell id="BdRyoHhxma-cPwSNTm6--88" value="Fix Mistake If Any" style="html=1;verticalAlign=bottom;endArrow=open;dashed=1;endSize=8;edgeStyle=elbowEdgeStyle;elbow=vertical;curved=0;rounded=0;" edge="1" parent="1">
          <mxGeometry relative="1" as="geometry">
            <mxPoint x="260" y="780" as="targetPoint" />
            <Array as="points">
              <mxPoint x="180" y="780" />
            </Array>
            <mxPoint x="100" y="780" as="sourcePoint" />
          </mxGeometry>
        </mxCell>
        <mxCell id="BdRyoHhxma-cPwSNTm6--89" value="Open Event Dashboard" style="html=1;verticalAlign=bottom;endArrow=block;edgeStyle=elbowEdgeStyle;elbow=vertical;curved=0;rounded=0;" edge="1" parent="1">
          <mxGeometry relative="1" as="geometry">
            <mxPoint x="280" y="680" as="sourcePoint" />
            <Array as="points">
              <mxPoint x="365" y="680" />
            </Array>
            <mxPoint x="450" y="680" as="targetPoint" />
          </mxGeometry>
        </mxCell>
        <mxCell id="BdRyoHhxma-cPwSNTm6--90" value="System : Navigation" style="shape=umlLifeline;perimeter=lifelinePerimeter;whiteSpace=wrap;html=1;container=0;dropTarget=0;collapsible=0;recursiveResize=0;outlineConnect=0;portConstraint=eastwest;newEdgeStyle={&quot;edgeStyle&quot;:&quot;elbowEdgeStyle&quot;,&quot;elbow&quot;:&quot;vertical&quot;,&quot;curved&quot;:0,&quot;rounded&quot;:0};" vertex="1" parent="1">
          <mxGeometry x="410" y="590" width="100" height="500" as="geometry" />
        </mxCell>
        <mxCell id="BdRyoHhxma-cPwSNTm6--91" value="" style="html=1;points=[];perimeter=orthogonalPerimeter;outlineConnect=0;targetShapes=umlLifeline;portConstraint=eastwest;newEdgeStyle={&quot;edgeStyle&quot;:&quot;elbowEdgeStyle&quot;,&quot;elbow&quot;:&quot;vertical&quot;,&quot;curved&quot;:0,&quot;rounded&quot;:0};" vertex="1" parent="BdRyoHhxma-cPwSNTm6--90">
          <mxGeometry x="45" y="80" width="10" height="420" as="geometry" />
        </mxCell>
        <mxCell id="BdRyoHhxma-cPwSNTm6--92" value="Start Event Edit Protocol " style="html=1;verticalAlign=bottom;endArrow=block;edgeStyle=elbowEdgeStyle;elbow=vertical;curved=0;rounded=0;" edge="1" parent="1">
          <mxGeometry relative="1" as="geometry">
            <mxPoint x="480" y="690" as="sourcePoint" />
            <Array as="points">
              <mxPoint x="565" y="690" />
            </Array>
            <mxPoint x="650" y="690" as="targetPoint" />
            <mxPoint as="offset" />
          </mxGeometry>
        </mxCell>
        <mxCell id="BdRyoHhxma-cPwSNTm6--93" value="Check Mistake" style="html=1;verticalAlign=bottom;endArrow=block;edgeStyle=elbowEdgeStyle;elbow=vertical;curved=0;rounded=0;" edge="1" parent="1">
          <mxGeometry x="-0.0909" y="1" relative="1" as="geometry">
            <mxPoint x="645" y="739.5" as="sourcePoint" />
            <Array as="points">
              <mxPoint x="570" y="739.5" />
            </Array>
            <mxPoint x="480" y="739.5" as="targetPoint" />
            <mxPoint as="offset" />
          </mxGeometry>
        </mxCell>
        <mxCell id="BdRyoHhxma-cPwSNTm6--94" value="Event Manager" style="shape=umlLifeline;perimeter=lifelinePerimeter;whiteSpace=wrap;html=1;container=0;dropTarget=0;collapsible=0;recursiveResize=0;outlineConnect=0;portConstraint=eastwest;newEdgeStyle={&quot;edgeStyle&quot;:&quot;elbowEdgeStyle&quot;,&quot;elbow&quot;:&quot;vertical&quot;,&quot;curved&quot;:0,&quot;rounded&quot;:0};" vertex="1" parent="1">
          <mxGeometry x="650" y="670" width="100" height="160" as="geometry" />
        </mxCell>
        <mxCell id="BdRyoHhxma-cPwSNTm6--95" value="" style="html=1;points=[];perimeter=orthogonalPerimeter;outlineConnect=0;targetShapes=umlLifeline;portConstraint=eastwest;newEdgeStyle={&quot;edgeStyle&quot;:&quot;elbowEdgeStyle&quot;,&quot;elbow&quot;:&quot;vertical&quot;,&quot;curved&quot;:0,&quot;rounded&quot;:0};" vertex="1" parent="BdRyoHhxma-cPwSNTm6--94">
          <mxGeometry x="45" y="60" width="10" height="100" as="geometry" />
        </mxCell>
        <mxCell id="BdRyoHhxma-cPwSNTm6--96" value="" style="html=1;verticalAlign=bottom;endArrow=open;dashed=1;endSize=8;edgeStyle=elbowEdgeStyle;elbow=vertical;curved=0;rounded=0;" edge="1" parent="1">
          <mxGeometry relative="1" as="geometry">
            <mxPoint x="280" y="830" as="targetPoint" />
            <Array as="points">
              <mxPoint x="375" y="830" />
            </Array>
            <mxPoint x="440" y="830" as="sourcePoint" />
            <mxPoint as="offset" />
          </mxGeometry>
        </mxCell>
        <mxCell id="BdRyoHhxma-cPwSNTm6--97" value="" style="html=1;verticalAlign=bottom;endArrow=open;dashed=1;endSize=8;edgeStyle=elbowEdgeStyle;elbow=vertical;curved=0;rounded=0;" edge="1" parent="1">
          <mxGeometry relative="1" as="geometry">
            <mxPoint x="480" y="830" as="targetPoint" />
            <Array as="points">
              <mxPoint x="565" y="830" />
            </Array>
            <mxPoint x="680" y="830" as="sourcePoint" />
            <mxPoint as="offset" />
          </mxGeometry>
        </mxCell>
        <mxCell id="BdRyoHhxma-cPwSNTm6--98" value="" style="html=1;verticalAlign=bottom;endArrow=open;dashed=1;endSize=8;edgeStyle=elbowEdgeStyle;elbow=vertical;curved=0;rounded=0;" edge="1" parent="1">
          <mxGeometry relative="1" as="geometry">
            <mxPoint x="445" y="780" as="targetPoint" />
            <Array as="points">
              <mxPoint x="360" y="780" />
            </Array>
            <mxPoint x="280" y="780" as="sourcePoint" />
          </mxGeometry>
        </mxCell>
        <mxCell id="BdRyoHhxma-cPwSNTm6--99" value="" style="html=1;verticalAlign=bottom;endArrow=open;dashed=1;endSize=8;edgeStyle=elbowEdgeStyle;elbow=vertical;curved=0;rounded=0;" edge="1" parent="1">
          <mxGeometry relative="1" as="geometry">
            <mxPoint x="680" y="780" as="targetPoint" />
            <Array as="points">
              <mxPoint x="550" y="780" />
            </Array>
            <mxPoint x="480" y="780" as="sourcePoint" />
          </mxGeometry>
        </mxCell>
        <mxCell id="BdRyoHhxma-cPwSNTm6--100" value="Wants to Manage Equipment" style="html=1;verticalAlign=bottom;endArrow=block;edgeStyle=elbowEdgeStyle;elbow=vertical;curved=0;rounded=0;" edge="1" parent="1">
          <mxGeometry relative="1" as="geometry">
            <mxPoint x="100" y="900" as="sourcePoint" />
            <Array as="points">
              <mxPoint x="175" y="900" />
            </Array>
            <mxPoint x="260" y="900" as="targetPoint" />
          </mxGeometry>
        </mxCell>
        <mxCell id="BdRyoHhxma-cPwSNTm6--101" value="Equipment Edit Sucessful" style="html=1;verticalAlign=bottom;endArrow=open;dashed=1;endSize=8;edgeStyle=elbowEdgeStyle;elbow=vertical;curved=0;rounded=0;" edge="1" parent="1">
          <mxGeometry x="-0.1176" relative="1" as="geometry">
            <mxPoint x="100" y="1060" as="targetPoint" />
            <Array as="points">
              <mxPoint x="195" y="1060" />
            </Array>
            <mxPoint x="260" y="1060" as="sourcePoint" />
            <mxPoint as="offset" />
          </mxGeometry>
        </mxCell>
        <mxCell id="BdRyoHhxma-cPwSNTm6--102" value="Give Feedback" style="html=1;verticalAlign=bottom;endArrow=block;edgeStyle=elbowEdgeStyle;elbow=vertical;curved=0;rounded=0;" edge="1" parent="1">
          <mxGeometry x="-0.0909" y="1" relative="1" as="geometry">
            <mxPoint x="440" y="990" as="sourcePoint" />
            <Array as="points">
              <mxPoint x="365" y="990" />
            </Array>
            <mxPoint x="280" y="990" as="targetPoint" />
            <mxPoint as="offset" />
          </mxGeometry>
        </mxCell>
        <mxCell id="BdRyoHhxma-cPwSNTm6--103" value="Fix Mistake If Any" style="html=1;verticalAlign=bottom;endArrow=open;dashed=1;endSize=8;edgeStyle=elbowEdgeStyle;elbow=vertical;curved=0;rounded=0;" edge="1" parent="1">
          <mxGeometry relative="1" as="geometry">
            <mxPoint x="260" y="1010" as="targetPoint" />
            <Array as="points">
              <mxPoint x="175" y="1010" />
            </Array>
            <mxPoint x="100" y="1010" as="sourcePoint" />
          </mxGeometry>
        </mxCell>
        <mxCell id="BdRyoHhxma-cPwSNTm6--104" value="Open Equipment Dashboard" style="html=1;verticalAlign=bottom;endArrow=block;edgeStyle=elbowEdgeStyle;elbow=vertical;curved=0;rounded=0;" edge="1" parent="1">
          <mxGeometry relative="1" as="geometry">
            <mxPoint x="275" y="910" as="sourcePoint" />
            <Array as="points">
              <mxPoint x="360" y="910" />
            </Array>
            <mxPoint x="445" y="910" as="targetPoint" />
          </mxGeometry>
        </mxCell>
        <mxCell id="BdRyoHhxma-cPwSNTm6--105" value="Start Equipment Edit Protocol" style="html=1;verticalAlign=bottom;endArrow=block;edgeStyle=elbowEdgeStyle;elbow=vertical;curved=0;rounded=0;" edge="1" parent="1">
          <mxGeometry relative="1" as="geometry">
            <mxPoint x="480" y="920" as="sourcePoint" />
            <Array as="points">
              <mxPoint x="565" y="920" />
            </Array>
            <mxPoint x="650" y="920" as="targetPoint" />
          </mxGeometry>
        </mxCell>
        <mxCell id="BdRyoHhxma-cPwSNTm6--106" value="Check ID &amp;amp; password" style="html=1;verticalAlign=bottom;endArrow=block;edgeStyle=elbowEdgeStyle;elbow=vertical;curved=0;rounded=0;" edge="1" parent="1">
          <mxGeometry x="-0.0909" relative="1" as="geometry">
            <mxPoint x="645" y="969.6600000000001" as="sourcePoint" />
            <Array as="points">
              <mxPoint x="570" y="969.6600000000001" />
            </Array>
            <mxPoint x="480" y="969.6600000000001" as="targetPoint" />
            <mxPoint as="offset" />
          </mxGeometry>
        </mxCell>
        <mxCell id="BdRyoHhxma-cPwSNTm6--107" value="" style="html=1;verticalAlign=bottom;endArrow=open;dashed=1;endSize=8;edgeStyle=elbowEdgeStyle;elbow=vertical;curved=0;rounded=0;" edge="1" parent="1">
          <mxGeometry relative="1" as="geometry">
            <mxPoint x="280" y="1060" as="targetPoint" />
            <Array as="points">
              <mxPoint x="370" y="1060" />
            </Array>
            <mxPoint x="440" y="1060" as="sourcePoint" />
            <mxPoint as="offset" />
          </mxGeometry>
        </mxCell>
        <mxCell id="BdRyoHhxma-cPwSNTm6--108" value="" style="html=1;verticalAlign=bottom;endArrow=open;dashed=1;endSize=8;edgeStyle=elbowEdgeStyle;elbow=vertical;curved=0;rounded=0;" edge="1" parent="1">
          <mxGeometry relative="1" as="geometry">
            <mxPoint x="480" y="1060" as="targetPoint" />
            <Array as="points">
              <mxPoint x="560" y="1060" />
            </Array>
            <mxPoint x="680" y="1060" as="sourcePoint" />
            <mxPoint as="offset" />
          </mxGeometry>
        </mxCell>
        <mxCell id="BdRyoHhxma-cPwSNTm6--109" value="" style="html=1;verticalAlign=bottom;endArrow=open;dashed=1;endSize=8;edgeStyle=elbowEdgeStyle;elbow=vertical;curved=0;rounded=0;" edge="1" parent="1">
          <mxGeometry relative="1" as="geometry">
            <mxPoint x="440" y="1010" as="targetPoint" />
            <Array as="points">
              <mxPoint x="355" y="1010" />
            </Array>
            <mxPoint x="280" y="1010" as="sourcePoint" />
          </mxGeometry>
        </mxCell>
        <mxCell id="BdRyoHhxma-cPwSNTm6--110" value="" style="html=1;verticalAlign=bottom;endArrow=open;dashed=1;endSize=8;edgeStyle=elbowEdgeStyle;elbow=vertical;curved=0;rounded=0;" edge="1" parent="1">
          <mxGeometry relative="1" as="geometry">
            <mxPoint x="680" y="1010" as="targetPoint" />
            <Array as="points">
              <mxPoint x="545" y="1010" />
            </Array>
            <mxPoint x="480" y="1010" as="sourcePoint" />
          </mxGeometry>
        </mxCell>
        <mxCell id="BdRyoHhxma-cPwSNTm6--111" value="Equipment Manager" style="shape=umlLifeline;perimeter=lifelinePerimeter;whiteSpace=wrap;html=1;container=0;dropTarget=0;collapsible=0;recursiveResize=0;outlineConnect=0;portConstraint=eastwest;newEdgeStyle={&quot;edgeStyle&quot;:&quot;elbowEdgeStyle&quot;,&quot;elbow&quot;:&quot;vertical&quot;,&quot;curved&quot;:0,&quot;rounded&quot;:0};" vertex="1" parent="1">
          <mxGeometry x="650" y="900" width="100" height="160" as="geometry" />
        </mxCell>
        <mxCell id="BdRyoHhxma-cPwSNTm6--112" value="" style="html=1;points=[];perimeter=orthogonalPerimeter;outlineConnect=0;targetShapes=umlLifeline;portConstraint=eastwest;newEdgeStyle={&quot;edgeStyle&quot;:&quot;elbowEdgeStyle&quot;,&quot;elbow&quot;:&quot;vertical&quot;,&quot;curved&quot;:0,&quot;rounded&quot;:0};" vertex="1" parent="BdRyoHhxma-cPwSNTm6--111">
          <mxGeometry x="45" y="60" width="10" height="100" as="geometry" />
        </mxCell>
        <mxCell id="BdRyoHhxma-cPwSNTm6--113" value="Customer" style="shape=umlLifeline;perimeter=lifelinePerimeter;whiteSpace=wrap;html=1;container=0;dropTarget=0;collapsible=0;recursiveResize=0;outlineConnect=0;portConstraint=eastwest;newEdgeStyle={&quot;edgeStyle&quot;:&quot;elbowEdgeStyle&quot;,&quot;elbow&quot;:&quot;vertical&quot;,&quot;curved&quot;:0,&quot;rounded&quot;:0};" vertex="1" parent="1">
          <mxGeometry x="40" y="1140" width="100" height="740" as="geometry" />
        </mxCell>
        <mxCell id="BdRyoHhxma-cPwSNTm6--114" value="" style="html=1;points=[];perimeter=orthogonalPerimeter;outlineConnect=0;targetShapes=umlLifeline;portConstraint=eastwest;newEdgeStyle={&quot;edgeStyle&quot;:&quot;elbowEdgeStyle&quot;,&quot;elbow&quot;:&quot;vertical&quot;,&quot;curved&quot;:0,&quot;rounded&quot;:0};" vertex="1" parent="BdRyoHhxma-cPwSNTm6--113">
          <mxGeometry x="45" y="70" width="10" height="670" as="geometry" />
        </mxCell>
        <mxCell id="BdRyoHhxma-cPwSNTm6--115" value="Website" style="shape=umlLifeline;perimeter=lifelinePerimeter;whiteSpace=wrap;html=1;container=0;dropTarget=0;collapsible=0;recursiveResize=0;outlineConnect=0;portConstraint=eastwest;newEdgeStyle={&quot;edgeStyle&quot;:&quot;elbowEdgeStyle&quot;,&quot;elbow&quot;:&quot;vertical&quot;,&quot;curved&quot;:0,&quot;rounded&quot;:0};" vertex="1" parent="1">
          <mxGeometry x="220" y="1140" width="100" height="740" as="geometry" />
        </mxCell>
        <mxCell id="BdRyoHhxma-cPwSNTm6--116" value="" style="html=1;points=[];perimeter=orthogonalPerimeter;outlineConnect=0;targetShapes=umlLifeline;portConstraint=eastwest;newEdgeStyle={&quot;edgeStyle&quot;:&quot;elbowEdgeStyle&quot;,&quot;elbow&quot;:&quot;vertical&quot;,&quot;curved&quot;:0,&quot;rounded&quot;:0};" vertex="1" parent="BdRyoHhxma-cPwSNTm6--115">
          <mxGeometry x="45" y="80" width="10" height="660" as="geometry" />
        </mxCell>
        <mxCell id="BdRyoHhxma-cPwSNTm6--117" value="Wants to Register for an Event " style="html=1;verticalAlign=bottom;endArrow=block;edgeStyle=elbowEdgeStyle;elbow=vertical;curved=0;rounded=0;" edge="1" parent="1" source="BdRyoHhxma-cPwSNTm6--114" target="BdRyoHhxma-cPwSNTm6--116">
          <mxGeometry relative="1" as="geometry">
            <mxPoint x="195" y="1230" as="sourcePoint" />
            <Array as="points">
              <mxPoint x="180" y="1220" />
            </Array>
            <mxPoint as="offset" />
          </mxGeometry>
        </mxCell>
        <mxCell id="BdRyoHhxma-cPwSNTm6--118" value="Event Booked" style="html=1;verticalAlign=bottom;endArrow=open;dashed=1;endSize=8;edgeStyle=elbowEdgeStyle;elbow=vertical;curved=0;rounded=0;" edge="1" parent="1">
          <mxGeometry relative="1" as="geometry">
            <mxPoint x="100" y="1380" as="targetPoint" />
            <Array as="points">
              <mxPoint x="190" y="1380" />
            </Array>
            <mxPoint x="250" y="1380" as="sourcePoint" />
            <mxPoint as="offset" />
          </mxGeometry>
        </mxCell>
        <mxCell id="BdRyoHhxma-cPwSNTm6--119" value="Give Feedback" style="html=1;verticalAlign=bottom;endArrow=block;edgeStyle=elbowEdgeStyle;elbow=vertical;curved=0;rounded=0;" edge="1" parent="1">
          <mxGeometry x="-0.0909" y="1" relative="1" as="geometry">
            <mxPoint x="445" y="1310" as="sourcePoint" />
            <Array as="points">
              <mxPoint x="370" y="1310" />
            </Array>
            <mxPoint x="280" y="1310" as="targetPoint" />
            <mxPoint as="offset" />
          </mxGeometry>
        </mxCell>
        <mxCell id="BdRyoHhxma-cPwSNTm6--120" value="Confirm Place" style="html=1;verticalAlign=bottom;endArrow=open;dashed=1;endSize=8;edgeStyle=elbowEdgeStyle;elbow=vertical;curved=0;rounded=0;" edge="1" parent="1">
          <mxGeometry relative="1" as="geometry">
            <mxPoint x="260" y="1330" as="targetPoint" />
            <Array as="points">
              <mxPoint x="180" y="1330" />
            </Array>
            <mxPoint x="100" y="1330" as="sourcePoint" />
          </mxGeometry>
        </mxCell>
        <mxCell id="BdRyoHhxma-cPwSNTm6--121" value="Open Event List" style="html=1;verticalAlign=bottom;endArrow=block;edgeStyle=elbowEdgeStyle;elbow=vertical;curved=0;rounded=0;" edge="1" parent="1">
          <mxGeometry relative="1" as="geometry">
            <mxPoint x="280" y="1230" as="sourcePoint" />
            <Array as="points">
              <mxPoint x="365" y="1230" />
            </Array>
            <mxPoint x="450" y="1230" as="targetPoint" />
          </mxGeometry>
        </mxCell>
        <mxCell id="BdRyoHhxma-cPwSNTm6--122" value="System : Navigation" style="shape=umlLifeline;perimeter=lifelinePerimeter;whiteSpace=wrap;html=1;container=0;dropTarget=0;collapsible=0;recursiveResize=0;outlineConnect=0;portConstraint=eastwest;newEdgeStyle={&quot;edgeStyle&quot;:&quot;elbowEdgeStyle&quot;,&quot;elbow&quot;:&quot;vertical&quot;,&quot;curved&quot;:0,&quot;rounded&quot;:0};" vertex="1" parent="1">
          <mxGeometry x="410" y="1140" width="100" height="740" as="geometry" />
        </mxCell>
        <mxCell id="BdRyoHhxma-cPwSNTm6--123" value="" style="html=1;points=[];perimeter=orthogonalPerimeter;outlineConnect=0;targetShapes=umlLifeline;portConstraint=eastwest;newEdgeStyle={&quot;edgeStyle&quot;:&quot;elbowEdgeStyle&quot;,&quot;elbow&quot;:&quot;vertical&quot;,&quot;curved&quot;:0,&quot;rounded&quot;:0};" vertex="1" parent="BdRyoHhxma-cPwSNTm6--122">
          <mxGeometry x="45" y="80" width="10" height="660" as="geometry" />
        </mxCell>
        <mxCell id="BdRyoHhxma-cPwSNTm6--124" value="Start Buying Protocol " style="html=1;verticalAlign=bottom;endArrow=block;edgeStyle=elbowEdgeStyle;elbow=vertical;curved=0;rounded=0;" edge="1" parent="1">
          <mxGeometry relative="1" as="geometry">
            <mxPoint x="480" y="1240" as="sourcePoint" />
            <Array as="points">
              <mxPoint x="565" y="1240" />
            </Array>
            <mxPoint x="650" y="1240" as="targetPoint" />
            <mxPoint as="offset" />
          </mxGeometry>
        </mxCell>
        <mxCell id="BdRyoHhxma-cPwSNTm6--125" value="Check if Place Available" style="html=1;verticalAlign=bottom;endArrow=block;edgeStyle=elbowEdgeStyle;elbow=vertical;curved=0;rounded=0;" edge="1" parent="1">
          <mxGeometry x="-0.0909" y="1" relative="1" as="geometry">
            <mxPoint x="645" y="1289.5" as="sourcePoint" />
            <Array as="points">
              <mxPoint x="570" y="1289.5" />
            </Array>
            <mxPoint x="480" y="1289.5" as="targetPoint" />
            <mxPoint as="offset" />
          </mxGeometry>
        </mxCell>
        <mxCell id="BdRyoHhxma-cPwSNTm6--126" value="Offer Manager" style="shape=umlLifeline;perimeter=lifelinePerimeter;whiteSpace=wrap;html=1;container=0;dropTarget=0;collapsible=0;recursiveResize=0;outlineConnect=0;portConstraint=eastwest;newEdgeStyle={&quot;edgeStyle&quot;:&quot;elbowEdgeStyle&quot;,&quot;elbow&quot;:&quot;vertical&quot;,&quot;curved&quot;:0,&quot;rounded&quot;:0};" vertex="1" parent="1">
          <mxGeometry x="650" y="1220" width="100" height="160" as="geometry" />
        </mxCell>
        <mxCell id="BdRyoHhxma-cPwSNTm6--127" value="" style="html=1;points=[];perimeter=orthogonalPerimeter;outlineConnect=0;targetShapes=umlLifeline;portConstraint=eastwest;newEdgeStyle={&quot;edgeStyle&quot;:&quot;elbowEdgeStyle&quot;,&quot;elbow&quot;:&quot;vertical&quot;,&quot;curved&quot;:0,&quot;rounded&quot;:0};" vertex="1" parent="BdRyoHhxma-cPwSNTm6--126">
          <mxGeometry x="45" y="60" width="10" height="100" as="geometry" />
        </mxCell>
        <mxCell id="BdRyoHhxma-cPwSNTm6--128" value="" style="html=1;verticalAlign=bottom;endArrow=open;dashed=1;endSize=8;edgeStyle=elbowEdgeStyle;elbow=vertical;curved=0;rounded=0;" edge="1" parent="1">
          <mxGeometry relative="1" as="geometry">
            <mxPoint x="280" y="1380" as="targetPoint" />
            <Array as="points">
              <mxPoint x="375" y="1380" />
            </Array>
            <mxPoint x="440" y="1380" as="sourcePoint" />
            <mxPoint as="offset" />
          </mxGeometry>
        </mxCell>
        <mxCell id="BdRyoHhxma-cPwSNTm6--129" value="" style="html=1;verticalAlign=bottom;endArrow=open;dashed=1;endSize=8;edgeStyle=elbowEdgeStyle;elbow=vertical;curved=0;rounded=0;" edge="1" parent="1">
          <mxGeometry relative="1" as="geometry">
            <mxPoint x="480" y="1380" as="targetPoint" />
            <Array as="points">
              <mxPoint x="565" y="1380" />
            </Array>
            <mxPoint x="680" y="1380" as="sourcePoint" />
            <mxPoint as="offset" />
          </mxGeometry>
        </mxCell>
        <mxCell id="BdRyoHhxma-cPwSNTm6--130" value="" style="html=1;verticalAlign=bottom;endArrow=open;dashed=1;endSize=8;edgeStyle=elbowEdgeStyle;elbow=vertical;curved=0;rounded=0;" edge="1" parent="1">
          <mxGeometry relative="1" as="geometry">
            <mxPoint x="445" y="1330" as="targetPoint" />
            <Array as="points">
              <mxPoint x="360" y="1330" />
            </Array>
            <mxPoint x="280" y="1330" as="sourcePoint" />
          </mxGeometry>
        </mxCell>
        <mxCell id="BdRyoHhxma-cPwSNTm6--131" value="" style="html=1;verticalAlign=bottom;endArrow=open;dashed=1;endSize=8;edgeStyle=elbowEdgeStyle;elbow=vertical;curved=0;rounded=0;" edge="1" parent="1">
          <mxGeometry relative="1" as="geometry">
            <mxPoint x="680" y="1330" as="targetPoint" />
            <Array as="points">
              <mxPoint x="550" y="1330" />
            </Array>
            <mxPoint x="480" y="1330" as="sourcePoint" />
          </mxGeometry>
        </mxCell>
        <mxCell id="BdRyoHhxma-cPwSNTm6--132" value="Wants to Rent Equipment" style="html=1;verticalAlign=bottom;endArrow=block;edgeStyle=elbowEdgeStyle;elbow=vertical;curved=0;rounded=0;" edge="1" parent="1">
          <mxGeometry relative="1" as="geometry">
            <mxPoint x="100" y="1450" as="sourcePoint" />
            <Array as="points">
              <mxPoint x="175" y="1450" />
            </Array>
            <mxPoint x="260" y="1450" as="targetPoint" />
          </mxGeometry>
        </mxCell>
        <mxCell id="BdRyoHhxma-cPwSNTm6--133" value="Equipment Booked" style="html=1;verticalAlign=bottom;endArrow=open;dashed=1;endSize=8;edgeStyle=elbowEdgeStyle;elbow=vertical;curved=0;rounded=0;" edge="1" parent="1">
          <mxGeometry x="-0.1176" relative="1" as="geometry">
            <mxPoint x="100" y="1610" as="targetPoint" />
            <Array as="points">
              <mxPoint x="195" y="1610" />
            </Array>
            <mxPoint x="260" y="1610" as="sourcePoint" />
            <mxPoint as="offset" />
          </mxGeometry>
        </mxCell>
        <mxCell id="BdRyoHhxma-cPwSNTm6--134" value="Give Feedback" style="html=1;verticalAlign=bottom;endArrow=block;edgeStyle=elbowEdgeStyle;elbow=vertical;curved=0;rounded=0;" edge="1" parent="1">
          <mxGeometry x="-0.0909" y="1" relative="1" as="geometry">
            <mxPoint x="440" y="1540" as="sourcePoint" />
            <Array as="points">
              <mxPoint x="365" y="1540" />
            </Array>
            <mxPoint x="280" y="1540" as="targetPoint" />
            <mxPoint as="offset" />
          </mxGeometry>
        </mxCell>
        <mxCell id="BdRyoHhxma-cPwSNTm6--135" value="Confirm Equipment" style="html=1;verticalAlign=bottom;endArrow=open;dashed=1;endSize=8;edgeStyle=elbowEdgeStyle;elbow=vertical;curved=0;rounded=0;" edge="1" parent="1">
          <mxGeometry relative="1" as="geometry">
            <mxPoint x="260" y="1560" as="targetPoint" />
            <Array as="points">
              <mxPoint x="175" y="1560" />
            </Array>
            <mxPoint x="100" y="1560" as="sourcePoint" />
          </mxGeometry>
        </mxCell>
        <mxCell id="BdRyoHhxma-cPwSNTm6--136" value="Open Equipment List" style="html=1;verticalAlign=bottom;endArrow=block;edgeStyle=elbowEdgeStyle;elbow=vertical;curved=0;rounded=0;" edge="1" parent="1">
          <mxGeometry relative="1" as="geometry">
            <mxPoint x="275" y="1460" as="sourcePoint" />
            <Array as="points">
              <mxPoint x="360" y="1460" />
            </Array>
            <mxPoint x="445" y="1460" as="targetPoint" />
          </mxGeometry>
        </mxCell>
        <mxCell id="BdRyoHhxma-cPwSNTm6--137" value="Start Equipment Renting Protocol" style="html=1;verticalAlign=bottom;endArrow=block;edgeStyle=elbowEdgeStyle;elbow=vertical;curved=0;rounded=0;" edge="1" parent="1">
          <mxGeometry relative="1" as="geometry">
            <mxPoint x="480" y="1470" as="sourcePoint" />
            <Array as="points">
              <mxPoint x="565" y="1470" />
            </Array>
            <mxPoint x="650" y="1470" as="targetPoint" />
          </mxGeometry>
        </mxCell>
        <mxCell id="BdRyoHhxma-cPwSNTm6--138" value="Check If Equipment Available" style="html=1;verticalAlign=bottom;endArrow=block;edgeStyle=elbowEdgeStyle;elbow=vertical;curved=0;rounded=0;" edge="1" parent="1">
          <mxGeometry x="-0.0909" relative="1" as="geometry">
            <mxPoint x="645" y="1519.66" as="sourcePoint" />
            <Array as="points">
              <mxPoint x="570" y="1519.66" />
            </Array>
            <mxPoint x="480" y="1519.66" as="targetPoint" />
            <mxPoint as="offset" />
          </mxGeometry>
        </mxCell>
        <mxCell id="BdRyoHhxma-cPwSNTm6--139" value="" style="html=1;verticalAlign=bottom;endArrow=open;dashed=1;endSize=8;edgeStyle=elbowEdgeStyle;elbow=vertical;curved=0;rounded=0;" edge="1" parent="1">
          <mxGeometry relative="1" as="geometry">
            <mxPoint x="280" y="1610" as="targetPoint" />
            <Array as="points">
              <mxPoint x="370" y="1610" />
            </Array>
            <mxPoint x="440" y="1610" as="sourcePoint" />
            <mxPoint as="offset" />
          </mxGeometry>
        </mxCell>
        <mxCell id="BdRyoHhxma-cPwSNTm6--140" value="" style="html=1;verticalAlign=bottom;endArrow=open;dashed=1;endSize=8;edgeStyle=elbowEdgeStyle;elbow=vertical;curved=0;rounded=0;" edge="1" parent="1">
          <mxGeometry relative="1" as="geometry">
            <mxPoint x="480" y="1610" as="targetPoint" />
            <Array as="points">
              <mxPoint x="560" y="1610" />
            </Array>
            <mxPoint x="680" y="1610" as="sourcePoint" />
            <mxPoint as="offset" />
          </mxGeometry>
        </mxCell>
        <mxCell id="BdRyoHhxma-cPwSNTm6--141" value="" style="html=1;verticalAlign=bottom;endArrow=open;dashed=1;endSize=8;edgeStyle=elbowEdgeStyle;elbow=vertical;curved=0;rounded=0;" edge="1" parent="1">
          <mxGeometry relative="1" as="geometry">
            <mxPoint x="440" y="1560" as="targetPoint" />
            <Array as="points">
              <mxPoint x="355" y="1560" />
            </Array>
            <mxPoint x="280" y="1560" as="sourcePoint" />
          </mxGeometry>
        </mxCell>
        <mxCell id="BdRyoHhxma-cPwSNTm6--142" value="" style="html=1;verticalAlign=bottom;endArrow=open;dashed=1;endSize=8;edgeStyle=elbowEdgeStyle;elbow=vertical;curved=0;rounded=0;" edge="1" parent="1">
          <mxGeometry relative="1" as="geometry">
            <mxPoint x="680" y="1560" as="targetPoint" />
            <Array as="points">
              <mxPoint x="545" y="1560" />
            </Array>
            <mxPoint x="480" y="1560" as="sourcePoint" />
          </mxGeometry>
        </mxCell>
        <mxCell id="BdRyoHhxma-cPwSNTm6--143" value="Renting Equipment Manager" style="shape=umlLifeline;perimeter=lifelinePerimeter;whiteSpace=wrap;html=1;container=0;dropTarget=0;collapsible=0;recursiveResize=0;outlineConnect=0;portConstraint=eastwest;newEdgeStyle={&quot;edgeStyle&quot;:&quot;elbowEdgeStyle&quot;,&quot;elbow&quot;:&quot;vertical&quot;,&quot;curved&quot;:0,&quot;rounded&quot;:0};" vertex="1" parent="1">
          <mxGeometry x="650" y="1450" width="100" height="160" as="geometry" />
        </mxCell>
        <mxCell id="BdRyoHhxma-cPwSNTm6--144" value="" style="html=1;points=[];perimeter=orthogonalPerimeter;outlineConnect=0;targetShapes=umlLifeline;portConstraint=eastwest;newEdgeStyle={&quot;edgeStyle&quot;:&quot;elbowEdgeStyle&quot;,&quot;elbow&quot;:&quot;vertical&quot;,&quot;curved&quot;:0,&quot;rounded&quot;:0};" vertex="1" parent="BdRyoHhxma-cPwSNTm6--143">
          <mxGeometry x="45" y="60" width="10" height="100" as="geometry" />
        </mxCell>
        <mxCell id="BdRyoHhxma-cPwSNTm6--177" value="Wants to Pay" style="html=1;verticalAlign=bottom;endArrow=block;edgeStyle=elbowEdgeStyle;elbow=vertical;curved=0;rounded=0;" edge="1" parent="1">
          <mxGeometry relative="1" as="geometry">
            <mxPoint x="100" y="1680" as="sourcePoint" />
            <Array as="points">
              <mxPoint x="175" y="1680" />
            </Array>
            <mxPoint x="260" y="1680" as="targetPoint" />
          </mxGeometry>
        </mxCell>
        <mxCell id="BdRyoHhxma-cPwSNTm6--178" value="Sucessfull" style="html=1;verticalAlign=bottom;endArrow=open;dashed=1;endSize=8;edgeStyle=elbowEdgeStyle;elbow=vertical;curved=0;rounded=0;" edge="1" parent="1">
          <mxGeometry x="-0.1146" relative="1" as="geometry">
            <mxPoint x="100" y="1840" as="targetPoint" />
            <Array as="points">
              <mxPoint x="195" y="1840" />
            </Array>
            <mxPoint x="260" y="1840" as="sourcePoint" />
            <mxPoint as="offset" />
          </mxGeometry>
        </mxCell>
        <mxCell id="BdRyoHhxma-cPwSNTm6--179" value="Give Feedback" style="html=1;verticalAlign=bottom;endArrow=block;edgeStyle=elbowEdgeStyle;elbow=vertical;curved=0;rounded=0;" edge="1" parent="1">
          <mxGeometry x="-0.0909" y="1" relative="1" as="geometry">
            <mxPoint x="440" y="1770" as="sourcePoint" />
            <Array as="points">
              <mxPoint x="365" y="1770" />
            </Array>
            <mxPoint x="280" y="1770" as="targetPoint" />
            <mxPoint as="offset" />
          </mxGeometry>
        </mxCell>
        <mxCell id="BdRyoHhxma-cPwSNTm6--180" value="Confirm Payment" style="html=1;verticalAlign=bottom;endArrow=open;dashed=1;endSize=8;edgeStyle=elbowEdgeStyle;elbow=vertical;curved=0;rounded=0;" edge="1" parent="1">
          <mxGeometry relative="1" as="geometry">
            <mxPoint x="260" y="1790" as="targetPoint" />
            <Array as="points">
              <mxPoint x="175" y="1790" />
            </Array>
            <mxPoint x="100" y="1790" as="sourcePoint" />
          </mxGeometry>
        </mxCell>
        <mxCell id="BdRyoHhxma-cPwSNTm6--181" value="Open Payment UI" style="html=1;verticalAlign=bottom;endArrow=block;edgeStyle=elbowEdgeStyle;elbow=vertical;curved=0;rounded=0;" edge="1" parent="1">
          <mxGeometry relative="1" as="geometry">
            <mxPoint x="275" y="1690" as="sourcePoint" />
            <Array as="points">
              <mxPoint x="360" y="1690" />
            </Array>
            <mxPoint x="445" y="1690" as="targetPoint" />
          </mxGeometry>
        </mxCell>
        <mxCell id="BdRyoHhxma-cPwSNTm6--182" value="Start Payment Protocol" style="html=1;verticalAlign=bottom;endArrow=block;edgeStyle=elbowEdgeStyle;elbow=vertical;curved=0;rounded=0;" edge="1" parent="1">
          <mxGeometry relative="1" as="geometry">
            <mxPoint x="480" y="1700" as="sourcePoint" />
            <Array as="points">
              <mxPoint x="565" y="1700" />
            </Array>
            <mxPoint x="650" y="1700" as="targetPoint" />
          </mxGeometry>
        </mxCell>
        <mxCell id="BdRyoHhxma-cPwSNTm6--183" value="Check if Payment Successful" style="html=1;verticalAlign=bottom;endArrow=block;edgeStyle=elbowEdgeStyle;elbow=vertical;curved=0;rounded=0;" edge="1" parent="1">
          <mxGeometry x="-0.0909" relative="1" as="geometry">
            <mxPoint x="645" y="1749.66" as="sourcePoint" />
            <Array as="points">
              <mxPoint x="570" y="1749.66" />
            </Array>
            <mxPoint x="480" y="1749.66" as="targetPoint" />
            <mxPoint as="offset" />
          </mxGeometry>
        </mxCell>
        <mxCell id="BdRyoHhxma-cPwSNTm6--184" value="" style="html=1;verticalAlign=bottom;endArrow=open;dashed=1;endSize=8;edgeStyle=elbowEdgeStyle;elbow=vertical;curved=0;rounded=0;" edge="1" parent="1">
          <mxGeometry relative="1" as="geometry">
            <mxPoint x="280" y="1840" as="targetPoint" />
            <Array as="points">
              <mxPoint x="370" y="1840" />
            </Array>
            <mxPoint x="440" y="1840" as="sourcePoint" />
            <mxPoint as="offset" />
          </mxGeometry>
        </mxCell>
        <mxCell id="BdRyoHhxma-cPwSNTm6--185" value="" style="html=1;verticalAlign=bottom;endArrow=open;dashed=1;endSize=8;edgeStyle=elbowEdgeStyle;elbow=vertical;curved=0;rounded=0;" edge="1" parent="1">
          <mxGeometry relative="1" as="geometry">
            <mxPoint x="480" y="1840" as="targetPoint" />
            <Array as="points">
              <mxPoint x="560" y="1840" />
            </Array>
            <mxPoint x="680" y="1840" as="sourcePoint" />
            <mxPoint as="offset" />
          </mxGeometry>
        </mxCell>
        <mxCell id="BdRyoHhxma-cPwSNTm6--186" value="" style="html=1;verticalAlign=bottom;endArrow=open;dashed=1;endSize=8;edgeStyle=elbowEdgeStyle;elbow=vertical;curved=0;rounded=0;" edge="1" parent="1">
          <mxGeometry relative="1" as="geometry">
            <mxPoint x="440" y="1790" as="targetPoint" />
            <Array as="points">
              <mxPoint x="355" y="1790" />
            </Array>
            <mxPoint x="280" y="1790" as="sourcePoint" />
          </mxGeometry>
        </mxCell>
        <mxCell id="BdRyoHhxma-cPwSNTm6--187" value="" style="html=1;verticalAlign=bottom;endArrow=open;dashed=1;endSize=8;edgeStyle=elbowEdgeStyle;elbow=vertical;curved=0;rounded=0;" edge="1" parent="1">
          <mxGeometry relative="1" as="geometry">
            <mxPoint x="680" y="1790" as="targetPoint" />
            <Array as="points">
              <mxPoint x="545" y="1790" />
            </Array>
            <mxPoint x="480" y="1790" as="sourcePoint" />
          </mxGeometry>
        </mxCell>
        <mxCell id="BdRyoHhxma-cPwSNTm6--188" value="Payment Manager" style="shape=umlLifeline;perimeter=lifelinePerimeter;whiteSpace=wrap;html=1;container=0;dropTarget=0;collapsible=0;recursiveResize=0;outlineConnect=0;portConstraint=eastwest;newEdgeStyle={&quot;edgeStyle&quot;:&quot;elbowEdgeStyle&quot;,&quot;elbow&quot;:&quot;vertical&quot;,&quot;curved&quot;:0,&quot;rounded&quot;:0};" vertex="1" parent="1">
          <mxGeometry x="650" y="1680" width="100" height="160" as="geometry" />
        </mxCell>
        <mxCell id="BdRyoHhxma-cPwSNTm6--189" value="" style="html=1;points=[];perimeter=orthogonalPerimeter;outlineConnect=0;targetShapes=umlLifeline;portConstraint=eastwest;newEdgeStyle={&quot;edgeStyle&quot;:&quot;elbowEdgeStyle&quot;,&quot;elbow&quot;:&quot;vertical&quot;,&quot;curved&quot;:0,&quot;rounded&quot;:0};" vertex="1" parent="BdRyoHhxma-cPwSNTm6--188">
          <mxGeometry x="45" y="60" width="10" height="100" as="geometry" />
        </mxCell>
      </root>
    </mxGraphModel>
  </diagram>
</mxfile>
